<svg width="1em" height="1em" viewBox="0 0 12 20" fill="none" xmlns="http://www.w3.org/2000/svg">
<path d="M6.38342 8.73193C5.34892 8.52293 4.43989 7.96209 3.84119 7.16309C3.74509 7.03609 3.67817 6.8927 3.64447 6.7417C3.61067 6.5907 3.6109 6.43469 3.6449 6.28369C3.9404 5.30869 5.60892 4.76502 7.22302 5.12402C7.97582 5.27602 8.65819 5.63862 9.17529 6.16162C9.3111 6.30862 9.47752 6.43104 9.66492 6.51904C9.85232 6.60804 10.0569 6.66173 10.2672 6.67773C10.4774 6.69373 10.689 6.67179 10.8898 6.61279C11.0906 6.55279 11.2767 6.45898 11.4373 6.33398C11.5979 6.20798 11.7299 6.05579 11.8256 5.88379C11.9214 5.71179 11.979 5.52403 11.9953 5.33203C12.0115 5.13903 11.986 4.94569 11.9202 4.7627C11.8544 4.5787 11.7496 4.40967 11.6119 4.26367C10.6586 3.27267 9.39038 2.57976 7.98468 2.28076C7.89938 2.26076 7.81618 2.25965 7.73078 2.24365V1.46289C7.73078 1.07489 7.56219 0.702734 7.26209 0.427734C6.96199 0.153734 6.55502 0 6.13062 0C5.70622 0 5.29919 0.153734 4.99909 0.427734C4.69899 0.702734 4.5304 1.07489 4.5304 1.46289V2.26709C3.6109 2.42909 2.75652 2.81574 2.05762 3.38574C1.35872 3.95574 0.841493 4.68788 0.560793 5.50488C0.411693 6.03288 0.381 6.58405 0.4704 7.12305C0.5599 7.66205 0.767723 8.18004 1.08142 8.64404C2.11362 10.13 3.74708 11.1828 5.62488 11.5708C6.65988 11.7798 7.56898 12.3421 8.16718 13.1421C8.26338 13.2691 8.33048 13.412 8.36438 13.563C8.39828 13.714 8.3984 13.869 8.3645 14.02C8.0669 14.996 6.3973 15.5377 4.7854 15.1797C4.0249 15.0287 3.33662 14.6599 2.81922 14.1289C2.54562 13.8339 2.15603 13.6507 1.73523 13.6177C1.31443 13.5857 0.896578 13.7071 0.572878 13.9551C0.249078 14.2031 0.0455766 14.5579 0.00677659 14.9419C-0.0320234 15.3269 0.0968802 15.7098 0.36548 16.0078C1.32248 17.0178 2.60519 17.7249 4.02899 18.0259C4.19539 18.0629 4.36082 18.0809 4.52722 18.1089V18.5356C4.52722 18.9236 4.69581 19.2958 4.99591 19.5708C5.29601 19.8448 5.70298 20 6.12738 20C6.55178 20 6.95881 19.8448 7.25891 19.5708C7.55901 19.2958 7.7276 18.9236 7.7276 18.5356V17.9937C8.5977 17.8037 9.39849 17.4086 10.0511 16.8496C10.7038 16.2896 11.1858 15.5847 11.4497 14.8027C11.5985 14.2737 11.6289 13.7241 11.5393 13.1851C11.4497 12.6451 11.2418 12.1281 10.9281 11.6641C9.8963 10.1761 8.26242 9.12093 6.38342 8.73193Z" fill="#4DC9D6"/>
</svg>
