<svg width="20" height="20" viewBox="0 0 20 20" fill="none" xmlns="http://www.w3.org/2000/svg">
<mask id="mask0_35_1474" style="mask-type:alpha" maskUnits="userSpaceOnUse" x="0" y="0" width="20" height="20">
<path d="M0 20H20V0H0V20Z" fill="black"/>
</mask>
<g mask="url(#mask0_35_1474)">
<path d="M18.972 0.863137C18.9663 0.792137 18.9526 0.723106 18.931 0.656106C18.9027 0.588106 18.8668 0.525165 18.824 0.466165C18.8049 0.426165 18.7832 0.387197 18.759 0.350198C18.751 0.340198 18.739 0.337225 18.731 0.328225C18.6782 0.276225 18.6198 0.230262 18.557 0.191262C18.5126 0.155262 18.4654 0.124291 18.416 0.0962915C18.3605 0.0752916 18.3033 0.0591726 18.245 0.0491724C18.1777 0.0281725 18.1083 0.0141563 18.038 0.00815678C18.025 0.00715637 18.014 0.000100136 18 0.000100136H14.7933C14.5281 0.000100136 14.2737 0.105313 14.0862 0.293313C13.8987 0.480313 13.7934 0.7341 13.7934 1.0001C13.7934 1.2651 13.8987 1.51913 14.0862 1.70713C14.2737 1.89413 14.5281 2.0001 14.7933 2.0001H15.2932L10.7416 5.90025L7.24181 5.02622C7.09251 4.98822 6.93661 4.98614 6.78621 5.01914C6.63591 5.05214 6.49512 5.11919 6.37492 5.21519L1.3752 9.21519C1.1681 9.38019 1.03532 9.62211 1.00612 9.88511C0.97682 10.1491 1.05352 10.4142 1.21932 10.6212C1.38502 10.8282 1.62621 10.9611 1.88991 10.9901C2.15361 11.0191 2.418 10.9422 2.6252 10.7772L7.23882 7.09019L10.7586 7.97032C10.9133 8.00832 11.075 8.00927 11.2301 7.97227C11.3853 7.93627 11.5294 7.86213 11.6505 7.75913L17.0001 3.1732V4.20713C17.0001 4.47213 17.1055 4.72616 17.293 4.91416C17.4805 5.10116 17.7349 5.20713 18 5.20713C18.2652 5.20713 18.5196 5.10116 18.7071 4.91416C18.8946 4.72616 19 4.47213 19 4.20713V1.0001C18.9942 0.9531 18.9848 0.908137 18.972 0.863137Z" fill="#57009C"/>
<path d="M13.5007 8.99995C12.413 8.99995 11.3497 9.32195 10.4453 9.92695C9.54087 10.5309 8.83596 11.39 8.41966 12.395C8.00336 13.4 7.89445 14.5059 8.10665 15.5729C8.31885 16.6399 8.84266 17.6201 9.61186 18.3891C10.381 19.1581 11.3609 19.682 12.4278 19.894C13.4946 20.106 14.6003 19.997 15.6052 19.581C16.6101 19.165 17.4691 18.4601 18.0734 17.5551C18.6777 16.6511 19.0003 15.5869 19.0003 14.4999C19.0003 13.0409 18.4209 11.642 17.3895 10.611C16.3581 9.57903 14.9593 8.99995 13.5007 8.99995ZM13.7406 13.591C14.5417 13.775 15.2374 14.269 15.6755 14.965C15.8195 15.199 15.9144 15.4601 15.9547 15.7331C15.9949 16.0051 15.9794 16.283 15.9094 16.549C15.8097 16.883 15.6337 17.19 15.3953 17.445C15.1569 17.7 14.8627 17.896 14.5356 18.018C14.5236 18.262 14.421 18.492 14.2481 18.665C14.0751 18.837 13.844 18.9391 13.6001 18.9501C13.3561 18.9611 13.1166 18.881 12.9285 18.726C12.7404 18.57 12.6172 18.3491 12.5827 18.1081C12.0097 17.9571 11.4955 17.6359 11.1077 17.1879C10.9376 16.9839 10.8555 16.721 10.8792 16.457C10.9029 16.192 11.0307 15.948 11.2343 15.778C11.438 15.608 11.7009 15.526 11.9652 15.549C12.2295 15.573 12.4736 15.701 12.6437 15.905C12.7782 16.052 12.9555 16.153 13.1507 16.195C13.2917 16.249 13.4454 16.26 13.5929 16.228C13.7405 16.196 13.8755 16.1221 13.9816 16.0151C13.9008 15.8911 13.796 15.7851 13.6733 15.7021C13.5507 15.6191 13.4128 15.5621 13.2677 15.5341C12.4666 15.3501 11.7712 14.8561 11.3338 14.1601C11.1902 13.9251 11.0956 13.6641 11.0555 13.3911C11.0155 13.1191 11.0309 12.8421 11.1008 12.5761C11.2054 12.2291 11.3917 11.912 11.644 11.653C11.8963 11.393 12.2071 11.197 12.5506 11.083V11.0529C12.5506 10.7869 12.6561 10.5331 12.8436 10.3461C13.0311 10.1581 13.2854 10.0529 13.5506 10.0529C13.8158 10.0529 14.0701 10.1581 14.2576 10.3461C14.4451 10.5331 14.5506 10.7869 14.5506 11.0529C15.0671 11.2109 15.5298 11.51 15.8875 11.915C15.9729 12.015 16.0376 12.1311 16.0781 12.2561C16.1187 12.3811 16.1343 12.513 16.1239 12.644C16.1135 12.775 16.0774 12.903 16.0176 13.02C15.9578 13.137 15.8756 13.2411 15.7755 13.3271C15.6754 13.4121 15.5595 13.477 15.4343 13.517C15.3092 13.558 15.1774 13.5729 15.0463 13.5629C14.9152 13.5529 14.7874 13.517 14.6702 13.457C14.5531 13.397 14.4489 13.315 14.3635 13.215C14.2281 13.069 14.0511 12.9691 13.8566 12.9291C13.7159 12.8751 13.5626 12.863 13.4154 12.895C13.2681 12.927 13.1334 13.0011 13.0277 13.1091C13.1086 13.2321 13.2133 13.3391 13.3356 13.4211C13.458 13.5041 13.5957 13.562 13.7406 13.591Z" fill="#57009C"/>
<path d="M6.00085 20C5.73565 20 5.48135 19.894 5.29385 19.707C5.10625 19.519 5.00098 19.265 5.00098 19V13C5.00098 12.734 5.10625 12.4802 5.29385 12.2932C5.48135 12.1052 5.73565 12 6.00085 12C6.26605 12 6.52038 12.1052 6.70798 12.2932C6.89548 12.4802 7.00076 12.734 7.00076 13V19C7.00076 19.265 6.89548 19.519 6.70798 19.707C6.52038 19.894 6.26605 20 6.00085 20Z" fill="#57009C"/>
<path d="M2.00186 20C1.73666 20 1.48237 19.894 1.29477 19.707C1.10727 19.519 1.00195 19.265 1.00195 19V15C1.00195 14.734 1.10727 14.4802 1.29477 14.2932C1.48237 14.1052 1.73666 14 2.00186 14C2.26706 14 2.52135 14.1052 2.70895 14.2932C2.89645 14.4802 3.00177 14.734 3.00177 15V19C3.00177 19.265 2.89645 19.519 2.70895 19.707C2.52135 19.894 2.26706 20 2.00186 20Z" fill="#57009C"/>
</g>
</svg>
