<svg width="16" height="20" viewBox="0 0 16 20" fill="none" xmlns="http://www.w3.org/2000/svg">
<path fill-rule="evenodd" clip-rule="evenodd" d="M4.07897 0.600159C4.24097 0.235159 4.602 6.10352e-05 5.002 6.10352e-05H12.979C13.729 6.10352e-05 14.218 0.790218 13.882 1.46222L11.613 6.00006H14.971C15.871 6.00006 16.321 7.08818 15.685 7.72418L3.73198 19.6771C2.97798 20.4311 1.72199 19.6551 2.05999 18.6441L4.60796 11.0001H1.01C0.841697 11.0001 0.676086 10.9583 0.528186 10.8773C0.380386 10.7973 0.254896 10.6811 0.163196 10.5401C0.0714957 10.3991 0.0164615 10.2371 0.00316148 10.0701C-0.0101385 9.90213 0.0186628 9.73314 0.0869628 9.58014L4.07897 0.600159Z" fill="#57009C"/>
</svg>
