<svg width="19" height="20" viewBox="0 0 19 20" fill="none" xmlns="http://www.w3.org/2000/svg">
<path d="M16.0416 7H14.3229V4.5C14.3229 3.306 13.7796 2.16212 12.8126 1.31812C11.8457 0.474115 10.5341 0 9.1666 0C7.7991 0 6.4876 0.474115 5.5206 1.31812C4.5536 2.16212 4.01039 3.306 4.01039 4.5V7H2.2916C1.6838 7 1.1009 7.21021 0.671204 7.58521C0.241404 7.96121 0 8.469 0 9V18C0 18.53 0.241404 19.0391 0.671204 19.4141C1.1009 19.7891 1.6838 20 2.2916 20H16.0416C16.6494 20 17.2323 19.7891 17.6621 19.4141C18.0918 19.0391 18.3333 18.53 18.3333 18V9C18.3333 8.469 18.0918 7.96121 17.6621 7.58521C17.2323 7.21021 16.6494 7 16.0416 7ZM10.3125 15C10.3125 15.265 10.1917 15.519 9.97679 15.707C9.76199 15.894 9.4705 16 9.1666 16C8.8627 16 8.5713 15.894 8.3564 15.707C8.1415 15.519 8.0208 15.265 8.0208 15V12C8.0208 11.734 8.1415 11.4802 8.3564 11.2932C8.5713 11.1052 8.8627 11 9.1666 11C9.4705 11 9.76199 11.1052 9.97679 11.2932C10.1917 11.4802 10.3125 11.734 10.3125 12V15ZM12.0312 7H6.302V4.5C6.302 3.837 6.6038 3.20118 7.1411 2.73218C7.6783 2.26318 8.4069 2 9.1666 2C9.9264 2 10.655 2.26318 11.1922 2.73218C11.7294 3.20118 12.0312 3.837 12.0312 4.5V7Z" fill="#57009C"/>
</svg>
