<svg width="1em" height="1em" viewBox="0 0 20 20" fill="none" xmlns="http://www.w3.org/2000/svg">
<mask id="mask0_35_825" style="mask-type:alpha" maskUnits="userSpaceOnUse" x="0" y="0" width="20" height="20">
<path d="M0 20H20V0H0V20Z" fill="#57009c"/>
</mask>
<g mask="url(#mask0_35_825)">
<path d="M16.6666 1.10783V14.5248C16.6666 14.7288 16.6104 14.928 16.5041 15.102C16.3978 15.276 16.2456 15.4167 16.0641 15.5097C15.8826 15.6027 15.6789 15.6448 15.4753 15.6298C15.2717 15.6148 15.0761 15.5447 14.9099 15.4267L8.88867 11.1386V4.49357L14.9099 0.20597C15.0761 0.0879698 15.2717 0.0168447 15.4753 0.00284481C15.6789 -0.0121555 15.8826 0.0299616 16.0641 0.122962C16.2456 0.215962 16.3978 0.356677 16.5041 0.530677C16.6104 0.704677 16.6666 0.903826 16.6666 1.10783Z" fill="#57009c"/>
<path d="M7.77789 3.38472H2.22229C1.63289 3.38472 1.06758 3.61864 0.650879 4.03365C0.234079 4.44965 0 5.01303 0 5.60103V10.0307C0 10.6187 0.234079 11.1816 0.650879 11.5966C1.06758 12.0126 1.63289 12.246 2.22229 12.246V17.7836C2.22229 18.3716 2.45641 18.935 2.87311 19.351C3.28991 19.766 3.85512 19.999 4.44452 19.999H5.5556C6.145 19.999 6.71031 19.766 7.12701 19.351C7.54381 18.935 7.77789 18.3716 7.77789 17.7836V3.38472ZM4.44452 17.7836V12.246H5.5556V17.7836H4.44452Z" fill="#57009c"/>
<path d="M17.7783 4.69576V10.936C18.4276 10.71 18.9902 10.288 19.3883 9.72896C19.7864 9.16996 20.0003 8.50187 20.0003 7.81587C20.0003 7.13087 19.7864 6.46179 19.3883 5.90279C18.9902 5.34379 18.4276 4.92175 17.7783 4.69576Z" fill="#57009c"/>
</g>
</svg>
