<svg width="1em" height="1em" viewBox="0 0 16 16" fill="none" xmlns="http://www.w3.org/2000/svg">
<mask id="mask0_35_2402" style="mask-type:alpha" maskUnits="userSpaceOnUse" x="0" y="0" width="16" height="16">
<path d="M0 16H16V0H0V16Z" fill="black"/>
</mask>
<g mask="url(#mask0_35_2402)">
<path d="M8.00002 3.8147e-06C6.41782 3.8147e-06 4.87101 0.469027 3.55541 1.34803C2.23981 2.22703 1.21453 3.47697 0.609032 4.93897C0.00353175 6.39997 -0.15499 8.00904 0.15371 9.56104C0.462409 11.113 1.22433 12.538 2.34313 13.657C3.46203 14.776 4.88742 15.538 6.43932 15.846C7.99112 16.155 9.59972 15.997 11.0615 15.391C12.5233 14.786 13.7727 13.76 14.6518 12.445C15.5308 11.129 16 9.582 16 8C15.9977 5.879 15.1541 3.84595 13.6543 2.34595C12.1545 0.845951 10.121 0.00200367 8.00002 3.8147e-06ZM8.00002 12.8001C7.84182 12.8001 7.68713 12.753 7.55553 12.665C7.42403 12.577 7.32142 12.452 7.26092 12.306C7.20032 12.16 7.18452 11.999 7.21542 11.844C7.24622 11.689 7.32242 11.546 7.43432 11.434C7.54622 11.322 7.68873 11.246 7.84393 11.215C7.99913 11.185 8.16001 11.2 8.30611 11.261C8.45231 11.321 8.57731 11.424 8.66521 11.556C8.75311 11.687 8.80001 11.842 8.80001 12C8.80001 12.212 8.71573 12.416 8.56573 12.566C8.41573 12.716 8.21222 12.8001 8.00002 12.8001ZM8.80001 9.17298V9.59998C8.80001 9.81198 8.71573 10.016 8.56573 10.166C8.41573 10.316 8.21222 10.4 8.00002 10.4C7.78782 10.4 7.58432 10.316 7.43432 10.166C7.28432 10.016 7.20004 9.81198 7.20004 9.59998V8.46595C7.20004 8.35795 7.22171 8.25098 7.26391 8.15198C7.30621 8.05298 7.36791 7.96304 7.44561 7.88904C7.52271 7.81404 7.61433 7.75504 7.71493 7.71704C7.81553 7.67904 7.92292 7.66102 8.03042 7.66602C8.18512 7.67202 8.33932 7.64595 8.48382 7.59095C8.62822 7.53495 8.76001 7.451 8.87121 7.344C8.98241 7.236 9.07073 7.10699 9.13073 6.96399C9.19083 6.82199 9.22142 6.66804 9.22082 6.51404C9.23312 6.19504 9.11852 5.885 8.90212 5.651C8.68582 5.418 8.38552 5.27997 8.06722 5.26697C7.74892 5.25497 7.43883 5.37006 7.20513 5.58606C6.97133 5.80206 6.83312 6.10302 6.82082 6.42102C6.81832 6.52602 6.79464 6.62996 6.75134 6.72596C6.70794 6.82196 6.64571 6.90898 6.56841 6.97998C6.49101 7.05198 6.40012 7.10795 6.30102 7.14295C6.20182 7.17895 6.09653 7.19495 5.99123 7.18995C5.77943 7.18095 5.57963 7.08896 5.43563 6.93396C5.29163 6.77796 5.21523 6.57199 5.22323 6.35999C5.24593 5.84599 5.41012 5.34705 5.69762 4.92005C5.98512 4.49305 6.38483 4.15297 6.85293 3.93897C7.32093 3.72397 7.83912 3.64201 8.35052 3.70301C8.86182 3.76401 9.34653 3.96396 9.75134 4.28296C10.1561 4.60096 10.4652 5.02496 10.6448 5.50696C10.8243 5.98996 10.8673 6.51295 10.769 7.01795C10.6706 7.52395 10.4348 7.99195 10.0874 8.37195C9.74013 8.75195 9.29461 9.02898 8.80001 9.17298Z" fill="#6B7280"/>
</g>
</svg>
