<svg width="20" height="20" viewBox="0 0 20 20" fill="none" xmlns="http://www.w3.org/2000/svg">
<mask id="mask0_35_1532" style="mask-type:alpha" maskUnits="userSpaceOnUse" x="0" y="0" width="20" height="20">
<path d="M0 20H20V0H0V20Z" fill="black"/>
</mask>
<g mask="url(#mask0_35_1532)">
<path d="M4.22095 7.27222H1.05493C0.774932 7.27222 0.50696 7.37699 0.30896 7.56299C0.11096 7.74899 0 8.00116 0 8.26416V17.1841C0 17.7101 0.22192 18.2142 0.61792 18.5862C1.01392 18.9572 1.55099 19.166 2.10999 19.166H3.16589C3.72489 19.166 4.26196 18.9572 4.65796 18.5862C5.05396 18.2142 5.276 17.7101 5.276 17.1841V8.26416C5.276 8.00116 5.16492 7.74899 4.96692 7.56299C4.76892 7.37699 4.50095 7.27222 4.22095 7.27222Z" fill="#57009C"/>
<path d="M17.8887 7.27222H13.7167L15.3607 2.81201C15.4147 2.40401 15.3147 1.99102 15.0787 1.64502C14.8427 1.29802 14.4857 1.04102 14.0677 0.916016C13.6507 0.791016 13.2007 0.807158 12.7947 0.962158C12.3887 1.11616 12.0537 1.39921 11.8457 1.76221C10.6267 3.71721 9.12574 5.50397 7.38574 7.07397V16.5752H7.50671C9.73171 17.1532 12.6778 18.175 15.4058 18.175C16.8828 18.175 17.0847 17.6541 17.3887 16.8701L19.8727 9.93213C19.9887 9.63213 20.0257 9.31112 19.9817 8.99512C19.9367 8.67912 19.8127 8.37819 19.6177 8.11719C19.4227 7.85619 19.1646 7.64309 18.8636 7.49609C18.5626 7.34909 18.2287 7.27222 17.8887 7.27222Z" fill="#57009C"/>
</g>
</svg>
