<svg width="20" height="17" viewBox="0 0 20 17" fill="none" xmlns="http://www.w3.org/2000/svg">
<path d="M19.9 6.96313C19.9 6.95413 19.9 6.94306 19.894 6.93506L17.894 2.70215C17.811 2.52615 17.6834 2.37815 17.5255 2.27515C17.3676 2.17215 17.1856 2.11719 17 2.11719H13C13 1.55619 12.7892 1.01712 12.4142 0.620117C12.0391 0.223118 11.5304 0 11 0H2C1.4695 0 0.960793 0.223118 0.585693 0.620117C0.210693 1.01712 0 1.55619 0 2.11719V11.6411C0 11.9211 0.105247 12.1902 0.292847 12.3892C0.480347 12.5872 0.7347 12.699 1 12.699H1.29999C1.26979 12.873 1.25266 13.05 1.24896 13.228C1.24896 14.14 1.59137 15.0152 2.20087 15.6602C2.81037 16.3052 3.63696 16.667 4.49896 16.667C5.36086 16.667 6.18756 16.3052 6.79706 15.6602C7.40656 15.0152 7.74896 14.14 7.74896 13.228C7.74586 13.05 7.72945 12.874 7.69995 12.699H12.3C12.2698 12.873 12.2527 13.05 12.249 13.228C12.249 14.14 12.5914 15.0152 13.2009 15.6602C13.8104 16.3052 14.637 16.667 15.499 16.667C16.3609 16.667 17.1876 16.3052 17.7971 15.6602C18.4066 15.0152 18.749 14.14 18.749 13.228C18.7459 13.05 18.7295 12.874 18.7 12.699H19C19.2652 12.699 19.5195 12.5872 19.7071 12.3892C19.8946 12.1902 20 11.9211 20 11.6411V7.40796C19.9979 7.25396 19.9638 7.10213 19.9 6.96313ZM16.382 4.23315L17.382 6.3501H13V4.23315H16.382ZM4.5 14.551C4.2527 14.551 4.01108 14.4731 3.80548 14.3281C3.59988 14.1821 3.43969 13.9761 3.34509 13.7341C3.25049 13.4921 3.22569 13.226 3.27399 12.97C3.32219 12.713 3.44129 12.478 3.61609 12.293C3.79089 12.108 4.0136 11.9822 4.2561 11.9312C4.4986 11.8802 4.74987 11.9061 4.97827 12.0061C5.20667 12.1061 5.40185 12.2762 5.53925 12.4932C5.67665 12.7112 5.75 12.966 5.75 13.228C5.7494 13.579 5.6176 13.9151 5.3833 14.1631C5.149 14.4111 4.8313 14.55 4.5 14.551ZM15.5 14.551C15.2527 14.551 15.0111 14.4731 14.8055 14.3281C14.5999 14.1821 14.4397 13.9761 14.3451 13.7341C14.2505 13.4921 14.2258 13.226 14.274 12.97C14.3222 12.713 14.4413 12.478 14.6161 12.293C14.7909 12.108 15.0136 11.9822 15.2561 11.9312C15.4986 11.8802 15.7499 11.9061 15.9783 12.0061C16.2067 12.1061 16.4018 12.2762 16.5392 12.4932C16.6766 12.7112 16.75 12.966 16.75 13.228C16.7494 13.579 16.6176 13.9151 16.3833 14.1631C16.149 14.4111 15.8313 14.55 15.5 14.551Z" fill="#57009C"/>
</svg>
